<?xml version="1.0" encoding="UTF-8" standalone="no"?>
<!DOCTYPE svg PUBLIC "-//W3C//DTD SVG 1.1//EN" "http://www.w3.org/Graphics/SVG/1.1/DTD/svg11.dtd">
<svg width="100%" height="100%" viewBox="0 0 143 48" version="1.1" xmlns="http://www.w3.org/2000/svg" xmlns:xlink="http://www.w3.org/1999/xlink" xml:space="preserve" xmlns:serif="http://www.serif.com/" style="fill-rule:evenodd;clip-rule:evenodd;stroke-linecap:round;stroke-linejoin:round;">
    <g transform="matrix(1,0,0,1,-103.288,-1238.68)">
        <g id="Artboard4" transform="matrix(0.416522,0,0,0.366517,103.288,832.69)">
            <rect x="0" y="1107.7" width="341.118" height="128.335" style="fill:none;"/>
            <g transform="matrix(2.40084,0,0,2.72839,-208.26,-123.026)">
                <g transform="matrix(1,0,0,1,7.09587,1.83811)">
                    <g transform="matrix(20,0,0,20,126.069,467.641)">
                        <path d="M0.246,-0C0.199,-0 0.162,-0.013 0.135,-0.04C0.109,-0.067 0.095,-0.104 0.095,-0.15L0.095,-0.638L0.251,-0.638L0.251,-0.159C0.251,-0.151 0.254,-0.144 0.259,-0.138C0.265,-0.133 0.272,-0.13 0.28,-0.13L0.392,-0.13L0.392,-0L0.246,-0ZM0.011,-0.386L0.011,-0.513L0.392,-0.513L0.392,-0.386L0.011,-0.386Z" style="fill-rule:nonzero;"/>
                    </g>
                    <g transform="matrix(20,0,0,20,133.689,467.641)">
                        <path d="M0.326,-0C0.268,-0 0.217,-0.011 0.173,-0.032C0.129,-0.054 0.095,-0.084 0.071,-0.123C0.046,-0.161 0.034,-0.206 0.034,-0.256C0.034,-0.312 0.045,-0.36 0.069,-0.4C0.092,-0.44 0.123,-0.471 0.163,-0.493C0.202,-0.514 0.245,-0.525 0.292,-0.525C0.346,-0.525 0.391,-0.513 0.428,-0.491C0.464,-0.468 0.492,-0.437 0.51,-0.398C0.529,-0.359 0.538,-0.315 0.538,-0.265C0.538,-0.256 0.538,-0.246 0.537,-0.235C0.536,-0.223 0.534,-0.214 0.533,-0.207L0.197,-0.207C0.201,-0.189 0.209,-0.175 0.22,-0.163C0.231,-0.151 0.245,-0.142 0.263,-0.136C0.28,-0.131 0.3,-0.128 0.321,-0.128L0.478,-0.128L0.478,-0L0.326,-0ZM0.193,-0.304L0.388,-0.304C0.387,-0.315 0.385,-0.325 0.382,-0.335C0.379,-0.345 0.375,-0.354 0.37,-0.362C0.364,-0.369 0.358,-0.376 0.35,-0.382C0.343,-0.387 0.334,-0.392 0.325,-0.395C0.315,-0.398 0.304,-0.4 0.292,-0.4C0.277,-0.4 0.263,-0.397 0.251,-0.392C0.239,-0.386 0.229,-0.379 0.221,-0.37C0.213,-0.361 0.207,-0.351 0.203,-0.34C0.198,-0.328 0.195,-0.316 0.193,-0.304Z" style="fill-rule:nonzero;"/>
                    </g>
                    <g transform="matrix(20,0,0,20,145.309,467.641)">
                        <path d="M0.31,-0C0.257,-0 0.21,-0.011 0.168,-0.034C0.126,-0.056 0.094,-0.086 0.07,-0.125C0.046,-0.163 0.034,-0.207 0.034,-0.256C0.034,-0.305 0.046,-0.349 0.07,-0.388C0.094,-0.426 0.126,-0.457 0.168,-0.479C0.21,-0.501 0.257,-0.513 0.31,-0.513L0.387,-0.513L0.387,-0.382L0.316,-0.382C0.29,-0.382 0.268,-0.377 0.249,-0.366C0.23,-0.355 0.216,-0.339 0.205,-0.32C0.195,-0.301 0.19,-0.28 0.19,-0.256C0.19,-0.232 0.195,-0.211 0.205,-0.192C0.216,-0.172 0.23,-0.157 0.249,-0.146C0.268,-0.135 0.29,-0.13 0.316,-0.13L0.387,-0.13L0.387,-0L0.31,-0Z" style="fill-rule:nonzero;"/>
                    </g>
                    <g transform="matrix(20,0,0,20,153.789,467.641)">
                        <path d="M0.058,-0L0.058,-0.73L0.213,-0.73L0.213,-0.479C0.233,-0.495 0.255,-0.507 0.279,-0.514C0.303,-0.521 0.327,-0.525 0.351,-0.525C0.398,-0.525 0.437,-0.515 0.47,-0.495C0.502,-0.475 0.526,-0.447 0.543,-0.413C0.559,-0.378 0.567,-0.339 0.567,-0.295L0.567,-0L0.412,-0L0.412,-0.289C0.412,-0.308 0.408,-0.326 0.399,-0.341C0.39,-0.356 0.377,-0.368 0.362,-0.377C0.347,-0.385 0.331,-0.39 0.313,-0.39C0.295,-0.39 0.278,-0.385 0.263,-0.377C0.248,-0.369 0.236,-0.357 0.227,-0.342C0.217,-0.327 0.213,-0.311 0.213,-0.292L0.213,-0L0.058,-0Z" style="fill-rule:nonzero;"/>
                    </g>
                    <g transform="matrix(20,0,0,20,171.769,467.641)">
                        <path d="M0.097,-0L0.097,-0.386L0.011,-0.386L0.011,-0.513L0.097,-0.513L0.097,-0.58C0.097,-0.627 0.11,-0.663 0.137,-0.69C0.163,-0.717 0.2,-0.73 0.247,-0.73L0.403,-0.73L0.403,-0.603L0.281,-0.603C0.273,-0.603 0.266,-0.6 0.26,-0.595C0.255,-0.589 0.252,-0.582 0.252,-0.574L0.252,-0.513L0.381,-0.513L0.381,-0.386L0.252,-0.386L0.252,-0L0.097,-0Z" style="fill-rule:nonzero;"/>
                    </g>
                    <g transform="matrix(20,0,0,20,178.609,467.641)">
                        <path d="M0.054,-0L0.054,-0.362C0.054,-0.409 0.067,-0.446 0.094,-0.472C0.12,-0.499 0.157,-0.512 0.205,-0.512L0.354,-0.512L0.354,-0.386L0.243,-0.386C0.233,-0.386 0.225,-0.383 0.219,-0.377C0.212,-0.37 0.209,-0.362 0.209,-0.352L0.209,-0L0.054,-0Z" style="fill-rule:nonzero;"/>
                    </g>
                    <g transform="matrix(20,0,0,20,184.549,467.641)">
                        <path d="M0.312,0.012C0.259,0.012 0.212,0 0.17,-0.023C0.128,-0.046 0.095,-0.078 0.071,-0.119C0.046,-0.16 0.034,-0.205 0.034,-0.256C0.034,-0.307 0.046,-0.353 0.071,-0.394C0.095,-0.434 0.128,-0.466 0.17,-0.49C0.212,-0.513 0.26,-0.525 0.312,-0.525C0.364,-0.525 0.412,-0.513 0.453,-0.49C0.495,-0.466 0.528,-0.434 0.553,-0.394C0.577,-0.353 0.589,-0.308 0.589,-0.256C0.589,-0.205 0.577,-0.159 0.553,-0.119C0.528,-0.078 0.495,-0.046 0.453,-0.023C0.411,0 0.364,0.012 0.312,0.012ZM0.312,-0.123C0.336,-0.123 0.358,-0.129 0.376,-0.141C0.394,-0.153 0.408,-0.169 0.418,-0.189C0.428,-0.209 0.433,-0.231 0.433,-0.257C0.433,-0.282 0.428,-0.304 0.418,-0.324C0.408,-0.344 0.394,-0.36 0.376,-0.372C0.358,-0.384 0.336,-0.39 0.312,-0.39C0.287,-0.39 0.266,-0.384 0.247,-0.372C0.229,-0.36 0.215,-0.344 0.205,-0.324C0.195,-0.304 0.19,-0.282 0.19,-0.257C0.19,-0.232 0.195,-0.209 0.205,-0.189C0.215,-0.169 0.229,-0.153 0.247,-0.141C0.265,-0.129 0.287,-0.123 0.312,-0.123Z" style="fill-rule:nonzero;"/>
                    </g>
                    <g transform="matrix(20,0,0,20,197.269,467.641)">
                        <path d="M0.058,-0L0.058,-0.303C0.058,-0.345 0.068,-0.383 0.087,-0.416C0.107,-0.45 0.135,-0.476 0.172,-0.496C0.208,-0.515 0.252,-0.525 0.303,-0.525C0.328,-0.525 0.351,-0.522 0.373,-0.517C0.394,-0.511 0.414,-0.503 0.431,-0.494C0.449,-0.484 0.464,-0.472 0.477,-0.459L0.479,-0.459C0.493,-0.472 0.508,-0.484 0.526,-0.494C0.543,-0.503 0.563,-0.511 0.585,-0.517C0.606,-0.522 0.63,-0.525 0.655,-0.525C0.706,-0.525 0.75,-0.515 0.786,-0.496C0.823,-0.476 0.851,-0.45 0.871,-0.416C0.891,-0.383 0.901,-0.345 0.901,-0.303L0.901,-0L0.745,-0L0.745,-0.298C0.745,-0.315 0.741,-0.33 0.733,-0.344C0.724,-0.357 0.713,-0.369 0.699,-0.377C0.685,-0.385 0.669,-0.39 0.651,-0.39C0.633,-0.39 0.617,-0.385 0.603,-0.377C0.588,-0.369 0.577,-0.357 0.569,-0.344C0.561,-0.33 0.557,-0.315 0.557,-0.298L0.557,-0L0.402,-0L0.402,-0.298C0.402,-0.315 0.398,-0.33 0.389,-0.344C0.381,-0.357 0.37,-0.369 0.355,-0.377C0.341,-0.385 0.325,-0.39 0.307,-0.39C0.289,-0.39 0.273,-0.385 0.259,-0.377C0.244,-0.369 0.233,-0.357 0.225,-0.344C0.217,-0.33 0.213,-0.315 0.213,-0.298L0.213,-0L0.058,-0Z" style="fill-rule:nonzero;"/>
                    </g>
                    <g transform="matrix(30,0,0,30,126.069,491.641)">
                        <path d="M0.329,0.012C0.273,0.012 0.225,0.001 0.184,-0.022C0.142,-0.045 0.11,-0.077 0.088,-0.119C0.065,-0.161 0.054,-0.21 0.054,-0.266L0.054,-0.73L0.209,-0.73L0.209,-0.457L0.212,-0.457C0.222,-0.471 0.235,-0.483 0.25,-0.494C0.265,-0.504 0.281,-0.512 0.3,-0.517C0.318,-0.522 0.337,-0.525 0.358,-0.525C0.406,-0.525 0.449,-0.514 0.486,-0.492C0.523,-0.47 0.552,-0.439 0.573,-0.401C0.593,-0.362 0.604,-0.317 0.604,-0.265C0.604,-0.225 0.597,-0.188 0.585,-0.154C0.572,-0.12 0.554,-0.091 0.531,-0.066C0.507,-0.041 0.478,-0.022 0.445,-0.008C0.411,0.006 0.372,0.012 0.329,0.012ZM0.329,-0.122C0.353,-0.122 0.374,-0.128 0.391,-0.139C0.409,-0.151 0.422,-0.167 0.432,-0.188C0.441,-0.208 0.446,-0.231 0.446,-0.256C0.446,-0.281 0.441,-0.304 0.432,-0.324C0.422,-0.344 0.409,-0.36 0.391,-0.371C0.374,-0.383 0.353,-0.389 0.329,-0.389C0.305,-0.389 0.284,-0.383 0.267,-0.371C0.249,-0.36 0.235,-0.344 0.226,-0.324C0.216,-0.304 0.212,-0.281 0.212,-0.256C0.212,-0.231 0.216,-0.208 0.226,-0.188C0.235,-0.167 0.249,-0.151 0.267,-0.139C0.284,-0.128 0.305,-0.122 0.329,-0.122Z" style="fill-rule:nonzero;"/>
                    </g>
                    <g transform="matrix(30,0,0,30,145.509,491.641)">
                        <path d="M0.326,-0C0.268,-0 0.217,-0.011 0.173,-0.032C0.129,-0.054 0.095,-0.084 0.071,-0.123C0.046,-0.161 0.034,-0.206 0.034,-0.256C0.034,-0.312 0.045,-0.36 0.069,-0.4C0.092,-0.44 0.123,-0.471 0.163,-0.493C0.202,-0.514 0.245,-0.525 0.292,-0.525C0.346,-0.525 0.391,-0.513 0.428,-0.491C0.464,-0.468 0.492,-0.437 0.51,-0.398C0.529,-0.359 0.538,-0.315 0.538,-0.265C0.538,-0.256 0.538,-0.246 0.537,-0.235C0.536,-0.223 0.534,-0.214 0.533,-0.207L0.197,-0.207C0.201,-0.189 0.209,-0.175 0.22,-0.163C0.231,-0.151 0.245,-0.142 0.263,-0.136C0.28,-0.131 0.3,-0.128 0.321,-0.128L0.478,-0.128L0.478,-0L0.326,-0ZM0.193,-0.304L0.388,-0.304C0.387,-0.315 0.385,-0.325 0.382,-0.335C0.379,-0.345 0.375,-0.354 0.37,-0.362C0.364,-0.369 0.358,-0.376 0.35,-0.382C0.343,-0.387 0.334,-0.392 0.325,-0.395C0.315,-0.398 0.304,-0.4 0.292,-0.4C0.277,-0.4 0.263,-0.397 0.251,-0.392C0.239,-0.386 0.229,-0.379 0.221,-0.37C0.213,-0.361 0.207,-0.351 0.203,-0.34C0.198,-0.328 0.195,-0.316 0.193,-0.304Z" style="fill-rule:nonzero;"/>
                    </g>
                    <g transform="matrix(30,0,0,30,162.939,491.641)">
                        <rect x="0.058" y="-0.73" width="0.155" height="0.73" style="fill-rule:nonzero;"/>
                    </g>
                    <g transform="matrix(30,0,0,30,168.789,491.641)">
                        <path d="M0.312,0.012C0.259,0.012 0.212,0 0.17,-0.023C0.128,-0.046 0.095,-0.078 0.071,-0.119C0.046,-0.16 0.034,-0.205 0.034,-0.256C0.034,-0.307 0.046,-0.353 0.071,-0.394C0.095,-0.434 0.128,-0.466 0.17,-0.49C0.212,-0.513 0.26,-0.525 0.312,-0.525C0.364,-0.525 0.412,-0.513 0.453,-0.49C0.495,-0.466 0.528,-0.434 0.553,-0.394C0.577,-0.353 0.589,-0.308 0.589,-0.256C0.589,-0.205 0.577,-0.159 0.553,-0.119C0.528,-0.078 0.495,-0.046 0.453,-0.023C0.411,0 0.364,0.012 0.312,0.012ZM0.312,-0.123C0.336,-0.123 0.358,-0.129 0.376,-0.141C0.394,-0.153 0.408,-0.169 0.418,-0.189C0.428,-0.209 0.433,-0.231 0.433,-0.257C0.433,-0.282 0.428,-0.304 0.418,-0.324C0.408,-0.344 0.394,-0.36 0.376,-0.372C0.358,-0.384 0.336,-0.39 0.312,-0.39C0.287,-0.39 0.266,-0.384 0.247,-0.372C0.229,-0.36 0.215,-0.344 0.205,-0.324C0.195,-0.304 0.19,-0.282 0.19,-0.257C0.19,-0.232 0.195,-0.209 0.205,-0.189C0.215,-0.169 0.229,-0.153 0.247,-0.141C0.265,-0.129 0.287,-0.123 0.312,-0.123Z" style="fill-rule:nonzero;"/>
                    </g>
                    <g transform="matrix(30,0,0,30,187.569,491.641)">
                        <path d="M0.257,0.012C0.221,0.012 0.189,0.005 0.158,-0.009C0.128,-0.023 0.104,-0.044 0.085,-0.073C0.067,-0.101 0.058,-0.137 0.058,-0.181L0.058,-0.513L0.213,-0.513L0.213,-0.161C0.213,-0.153 0.215,-0.146 0.219,-0.139C0.223,-0.132 0.228,-0.127 0.235,-0.123C0.242,-0.119 0.249,-0.117 0.257,-0.117C0.265,-0.117 0.272,-0.119 0.279,-0.123C0.286,-0.127 0.291,-0.132 0.295,-0.139C0.299,-0.146 0.301,-0.153 0.301,-0.161L0.301,-0.332C0.301,-0.373 0.31,-0.408 0.327,-0.437C0.345,-0.465 0.368,-0.487 0.399,-0.502C0.429,-0.517 0.463,-0.525 0.501,-0.525C0.539,-0.525 0.573,-0.517 0.603,-0.502C0.633,-0.487 0.657,-0.465 0.674,-0.437C0.692,-0.408 0.7,-0.373 0.7,-0.332L0.7,-0.161C0.7,-0.153 0.702,-0.146 0.706,-0.139C0.71,-0.132 0.716,-0.127 0.723,-0.123C0.73,-0.119 0.737,-0.117 0.745,-0.117C0.753,-0.117 0.761,-0.119 0.767,-0.123C0.774,-0.127 0.779,-0.132 0.783,-0.139C0.787,-0.146 0.789,-0.153 0.789,-0.161L0.789,-0.513L0.944,-0.513L0.944,-0.181C0.944,-0.137 0.935,-0.101 0.917,-0.073C0.898,-0.044 0.874,-0.023 0.844,-0.009C0.813,0.005 0.78,0.012 0.745,0.012C0.71,0.012 0.677,0.005 0.647,-0.009C0.616,-0.023 0.592,-0.044 0.573,-0.073C0.554,-0.101 0.545,-0.137 0.545,-0.181L0.545,-0.351C0.545,-0.36 0.543,-0.368 0.539,-0.374C0.535,-0.381 0.53,-0.386 0.523,-0.39C0.517,-0.394 0.509,-0.396 0.501,-0.396C0.493,-0.396 0.486,-0.394 0.479,-0.39C0.472,-0.386 0.466,-0.381 0.462,-0.374C0.458,-0.368 0.456,-0.36 0.456,-0.351L0.456,-0.181C0.456,-0.137 0.447,-0.101 0.429,-0.073C0.41,-0.044 0.386,-0.023 0.356,-0.009C0.325,0.005 0.293,0.012 0.257,0.012Z" style="fill-rule:nonzero;"/>
                    </g>
                </g>
                <g transform="matrix(2.77749,0,0,2.77749,110.185,474.486)">
                    <g transform="matrix(1,0,0,1,-8,-8)">
                        <path d="M4.25,6.75L1.75,8L8,11.25L14.25,8L11.75,6.75M1.75,11L8,14.25L14.25,11" style="fill:none;fill-rule:nonzero;stroke:black;stroke-width:1.5px;"/>
                        <path d="M8,8.25L8,1.75M5.75,3.75L8,1.75L10.25,3.75" style="fill:none;fill-rule:nonzero;stroke:black;stroke-width:1.5px;"/>
                    </g>
                </g>
            </g>
        </g>
    </g>
</svg>
