<svg width="512" height="512" viewBox="0 0 512 512" fill="none" xmlns="http://www.w3.org/2000/svg">
<rect width="512" height="512" fill="white"/>
<path fill-rule="evenodd" clip-rule="evenodd" d="M383.2 425.614C347.768 452.228 303.725 467.999 255.999 467.999C138.915 467.999 44 373.083 44 255.999C44 138.915 138.915 44 255.999 44C303.725 44 347.768 59.7707 383.2 86.3851V50C383.2 46.6863 385.886 44 389.2 44H462C465.314 44 468 46.6863 468 50V461.999C468 465.312 465.314 467.999 462 467.999H389.2C385.886 467.999 383.2 465.312 383.2 461.999V425.614ZM256 376.133C322.348 376.133 376.133 322.348 376.133 256C376.133 189.652 322.348 135.867 256 135.867C189.652 135.867 135.867 189.652 135.867 256C135.867 322.348 189.652 376.133 256 376.133ZM255.993 354.926C282.232 354.926 307.396 344.503 325.949 325.949L255.993 255.993L186.036 186.036C167.483 204.59 157.06 229.754 157.06 255.993C157.06 282.232 167.483 307.396 186.036 325.949C204.59 344.503 229.754 354.926 255.993 354.926Z" fill="black"/>
</svg>
