<svg
    width="814"
    height="800"
    viewBox="0 0 814 800"
    fill="none"
    xmlns="http://www.w3.org/2000/svg"
>
    <style>
        path {
        fill: #000;
        }
        @media (prefers-color-scheme: dark) {
        path {
        fill: #fff;
        }
        }
    </style>

    <path
        fill-rule="evenodd"
        clip-rule="evenodd"
        d="M187.872 400C187.872 517.163 282.837 612.128 400 612.128C458.558 612.128 511.613 588.399 549.982 549.982L250.018 250.018C211.649 288.387 187.872 341.442 187.872 400V400ZM695.563 14.5916H813.587V785.456H695.563C678.053 785.456 663.509 772.348 663.509 754.838V700.825C593.135 762.54 500.993 800 400.048 800C179.07 800 0 620.931 0 400C0 179.069 179.069 0 400 0C500.945 0 593.087 37.4596 663.461 99.1747V45.1621C663.461 27.6522 678.053 14.5437 695.515 14.5437L695.563 14.5916ZM665.949 400.048C665.949 253.175 546.872 134.099 400 134.099C253.128 134.099 134.051 253.128 134.051 400C134.051 546.872 253.128 665.949 400 665.949C546.872 665.949 665.949 546.872 665.949 400V400.048Z"
    />
</svg>
